<svg width="18" height="18" fill="none" xmlns="http://www.w3.org/2000/svg"><path d="M10.41 9.264c.074 0 .354.126.839.379.485.252.741.404.77.456a.366.366 0 01.017.13c0 .189-.048.407-.146.654-.092.224-.296.412-.611.564-.316.152-.609.228-.879.228-.327 0-.872-.178-1.635-.534A4.914 4.914 0 017.3 10.125c-.413-.419-.838-.95-1.274-1.593-.413-.614-.617-1.17-.611-1.67v-.069c.017-.522.23-.976.637-1.36a.651.651 0 01.447-.19c.035 0 .086.005.155.013.07.009.124.013.164.013.109 0 .185.019.228.056a.623.623 0 01.134.237c.045.115.14.367.284.758.143.39.215.605.215.645 0 .12-.1.286-.297.495-.198.21-.297.343-.297.4 0 .04.014.084.043.13.195.419.488.812.878 1.18.321.304.755.593 1.3.869.069.04.132.06.19.06.086 0 .24-.139.464-.417.224-.279.373-.418.448-.418zm-1.75 4.563a5.26 5.26 0 002.097-.43 5.454 5.454 0 001.726-1.154 5.454 5.454 0 001.154-1.726c.287-.669.43-1.368.43-2.097a5.26 5.26 0 00-.43-2.096 5.453 5.453 0 00-1.154-1.726 5.453 5.453 0 00-1.726-1.154 5.262 5.262 0 00-2.097-.43 5.26 5.26 0 00-2.096.43 5.453 5.453 0 00-1.726 1.154 5.453 5.453 0 00-1.154 1.726 5.262 5.262 0 00-.43 2.096 5.26 5.26 0 001.033 3.169l-.68 2.006 2.083-.663a5.295 5.295 0 002.97.895zm0-11.898c.879 0 1.718.172 2.519.516.8.345 1.49.807 2.07 1.386.58.58 1.042 1.27 1.386 2.071.345.8.517 1.64.517 2.518 0 .878-.172 1.718-.517 2.519-.344.8-.806 1.49-1.386 2.07a6.557 6.557 0 01-2.07 1.386 6.3 6.3 0 01-2.519.517 6.387 6.387 0 01-3.142-.81l-3.59 1.154 1.17-3.486a6.337 6.337 0 01-.93-3.35c0-.878.173-1.717.517-2.518.345-.8.807-1.49 1.386-2.07a6.557 6.557 0 012.071-1.387 6.31 6.31 0 012.518-.516z" fill="#fff"/></svg>